<?xml version="1.0" encoding="utf-8"?>
<!DOCTYPE svg PUBLIC "-//W3C//DTD SVG 20010904//EN" "http://www.w3.org/TR/2001/REC-SVG-20010904/DTD/svg10.dtd">
<svg version="1.0" xmlns="http://www.w3.org/2000/svg" width="651px" height="178px" viewBox="0 0 651 178" preserveAspectRatio="xMidYMid meet">
 <g fill="#ffffff">
  <path d="M0 89 l0 -89 325.5 0 325.5 0 0 89 0 89 -325.5 0 -325.5 0 0 -89z m164.2 57.1 c8.6 -2.8 12.7 -7.6 10 -11.8 -0.6 -0.9 -2.5 -0.7 -8.2 0.8 -5.4 1.4 -10.7 1.9 -20.2 1.9 -14.6 0 -18.5 -1.2 -23.5 -7.5 l-2.8 -3.5 -8.8 0 -8.8 0 1.7 3.3 c4.5 8.7 12.8 15.2 23.4 18.2 8 2.2 28.2 1.5 37.2 -1.4z m64.8 0.4 c1.4 -0.7 3.6 -2.5 4.9 -3.9 3.4 -3.6 9.3 -3.7 10.9 -0.1 2 4.3 7.7 6.2 17.4 5.7 3.6 -0.2 3.6 -0.2 4.3 -5.4 0.3 -2.9 0.8 -6.5 1.1 -8 0.5 -2.3 0.2 -2.8 -1.3 -2.8 -4.3 0 -4.3 -0.4 -4.3 -47.7 l0 -45.3 -12 0 -12 0 0 15 0 15 -3.7 0 c-2.1 -0.1 -4.9 -0.7 -6.3 -1.5 -7.1 -4 -19.5 0.5 -25 9.2 -5.9 9.2 -8.4 23.3 -6.9 39 1.9 20.5 8.2 29.7 22.4 32.6 2.7 0.5 7.4 -0.3 10.5 -1.8z m365 0 c1.4 -0.7 3.6 -2.5 4.9 -3.9 3.1 -3.3 9.6 -3.7 10.6 -0.6 1.3 4.2 8 6.5 17.7 6.1 4 -0.1 4 -0.1 5.3 -10.8 0.6 -4.9 0.5 -5.3 -1.4 -5.3 -1.1 0 -2.5 -0.9 -3.1 -1.9 -0.6 -1.3 -1 -17.7 -1 -46.5 l0 -44.6 -12 0 -12 0 0 15 0 15 -3.4 0 c-1.8 0 -4.7 -0.7 -6.2 -1.5 -4.3 -2.2 -10.3 -1.8 -16.1 1 -10.2 5.1 -15.2 16 -16 34.5 -1.2 25.8 5.4 40.9 19.5 44.6 5 1.3 9.1 0.9 13.2 -1.1z m-525.8 -2.1 c10 -3.2 16.5 -10.5 19.5 -22.1 1.8 -7 1.2 -12.7 -2.1 -19.9 -3.4 -7.4 -8.7 -12 -21.6 -18.9 -6.2 -3.3 -11.9 -7 -12.8 -8.3 -1.8 -2.7 -1.2 -10.7 1 -12.9 2.3 -2.2 11.4 -2.7 21.3 -1 4.9 0.9 9.1 1.5 9.2 1.3 0.2 -0.2 0.9 -4.8 1.6 -10.4 l1.3 -10.1 -2.5 -0.5 c-14.5 -3 -28.2 -3.4 -35.9 -1.1 -13.4 4 -23.3 18.4 -21.9 32.1 1.2 11.7 7.6 20.2 20.2 27 12.1 6.4 16.2 9.4 17.5 12.5 1.4 3.3 0.8 10.2 -1 12.4 -1.7 2 -16.4 2 -24.9 0 -3.6 -0.9 -6.8 -1.2 -7.1 -0.8 -0.4 0.4 -1 4.7 -1.3 9.4 l-0.6 8.7 4.7 1.2 c7.7 2 22.4 3.9 26.7 3.3 2.2 -0.2 6.1 -1.1 8.7 -1.9z m236.8 -36.4 l0 -39 -11.5 0 -11.5 0 0 39 0 39 11.5 0 11.5 0 0 -39z m45.2 8.8 l0.3 -30.3 6.1 -0.3 c7.1 -0.3 7.4 -0.7 7.4 -10.4 l0 -5.8 -7 0 -7.1 0 0.3 -5.7 0.3 -5.8 7.6 -0.3 7.6 -0.3 0.7 -9.1 c0.5 -7 0.4 -9.3 -0.6 -9.9 -0.7 -0.5 -5.8 -0.9 -11.4 -0.9 -12.1 0 -18.1 1.7 -22.3 6.6 -3.8 4.2 -5.1 9 -5.1 18.2 l0 7.2 -4 0 -4 0 0 7.9 0 8 3.8 0.3 3.7 0.3 0.3 30.3 0.2 30.2 11.5 0 11.5 0 0.2 -30.2z m72.6 27 c13.9 -4.2 25.3 -17.3 28.1 -32.4 1.6 -8.5 -2.6 -22.1 -9.3 -30.2 -3.7 -4.3 -3.5 -8.5 0.7 -11.1 1.7 -1.2 4.5 -3.2 6 -4.5 l2.9 -2.3 -4.8 -2.2 c-7.9 -3.8 -14.6 -2.9 -22.8 2.8 -3.3 2.4 -5.8 3.2 -12.8 4 -15.4 1.8 -24.7 8.4 -31.2 22 -2.8 6 -3.1 7.5 -3.1 16.1 0 8.2 0.4 10.3 2.7 15.3 5.2 11 16.7 20.5 28.3 23.3 5.1 1.2 9.4 1 15.3 -0.8z m100 -2.5 c3.3 -2.4 8.3 -11.1 12.3 -21.3 3.1 -7.7 7.9 -28.8 7.9 -34.4 0 -6.7 -6.3 -12.6 -13.4 -12.6 -2.5 0 -3.8 -0.6 -4.6 -2 -2 -3.8 -5.7 -4.6 -21.3 -4.4 l-14.8 0.1 -3.2 3.1 c-2.1 2 -4.3 3.2 -6 3.2 -6.6 0 -12.7 6.3 -12.7 13.1 0 6.6 4 26.1 7 33.8 3.8 9.5 10.1 19.6 13.8 21.8 2.4 1.5 5.2 1.8 17.6 1.7 13.1 -0.1 15 -0.3 17.4 -2.1z m-367.6 -24.3 c10.3 -3.2 20 -10.7 27 -20.8 l3 -4.3 -3.2 -4.9 c-8.4 -13.1 -25.2 -23 -39 -23 -13.8 0 -30.6 9.9 -39 23 l-3.2 4.9 3.3 4.7 c12.4 18.1 32.6 26.1 51.1 20.4z m144.2 -59.4 c11.6 -4.8 7 -19.6 -6.1 -19.6 -9.6 0 -15.6 9.6 -10.2 16.4 3.3 4.2 10.5 5.6 16.3 3.2z m215.2 -6 c1 -0.8 1.5 -1.8 1.1 -2.2 -0.4 -0.4 -1.7 0.2 -2.9 1.4 -2.5 2.5 -1.3 3 1.8 0.8z"/>
  <path d="M221.3 128.3 c-1.6 -2.3 -1.8 -5.1 -1.8 -20.3 0 -22 0.4 -23 9.6 -23 10.4 0 9.9 -1.2 9.9 23.4 0 24.4 0.8 22.6 -9.6 22.6 -5.8 0 -6.5 -0.2 -8.1 -2.7z"/>
  <path d="M586.9 129.3 c-1.1 -1.2 -1.4 -6.1 -1.4 -21.3 0 -23.1 0 -23 8.4 -23 11 0 10.1 -1.9 10.1 23 0 24.8 0.8 23 -9.5 23 -4.6 0 -6.6 -0.4 -7.6 -1.7z"/>
  <path d="M132 111.9 c-4.1 -1.7 -8.9 -5.8 -10.7 -9.2 -1.1 -2.1 -1.7 -5.7 -1.7 -10.7 -0.1 -6.4 0.3 -8.2 2.6 -12 1.6 -2.8 4.3 -5.5 7 -7 3.7 -2.2 5.5 -2.5 13.8 -2.5 8.3 0 10.1 0.3 13.8 2.5 2.7 1.5 5.4 4.2 7 7 2.3 3.8 2.7 5.7 2.7 12 -0.1 9 -1.9 13 -8.4 17.5 -3.9 2.8 -5 3 -13.9 3.2 -5.3 0.2 -10.8 -0.2 -12.2 -0.8z m16.5 -15 c1.9 -1.7 3.5 -4 3.5 -5.1 0 -3.1 -5.4 -7.8 -9 -7.8 -3.6 0 -9 4.7 -9 7.8 0 2.4 6.3 8.2 9 8.2 1.1 0 3.5 -1.4 5.5 -3.1z"/>
 </g>
 <g fill="#ff9e80">
  <path d="M485 144.8 c-7.2 -4.3 -15.7 -22.6 -19 -40.9 -2.6 -14.6 -2.6 -23.4 0 -27.6 2.2 -3.7 6.7 -6.3 10.7 -6.3 1.7 0 3.9 -1.2 6.1 -3.2 3.2 -3.1 3.7 -3.3 11 -3.3 4.5 0 8.1 -0.5 8.7 -1.1 0.6 -0.7 2.2 -1.4 3.8 -1.7 2.3 -0.3 2.7 -0.1 2.2 1.3 -0.5 1.6 0.1 1.7 5.8 1.3 6.9 -0.6 11.8 1.1 13.7 4.7 0.8 1.4 2.1 2 4.6 2 8.4 0 13.4 5.8 13.4 15.6 0 13.7 -6.6 37.4 -14.2 50.9 -5.5 9.8 -6.7 10.3 -26.8 10.2 -14.7 0 -17.4 -0.3 -20 -1.9z m38.5 -5.4 c6.8 -6.7 15.4 -29.7 17.8 -47.1 0.9 -7.3 0.9 -8.8 -0.6 -11.9 -1.9 -3.8 -6.5 -6.4 -11.7 -6.4 -1.8 0 -3.3 -0.6 -3.6 -1.5 -0.3 -0.8 -2 -2.3 -3.7 -3.4 -2.8 -1.7 -4.4 -1.9 -13.4 -1.4 l-10.3 0.6 0 2.9 c0 1.7 -0.9 3.6 -2.4 4.9 -1.3 1.2 -2.7 3.2 -3 4.5 -0.6 2.1 -1.2 2.4 -5.6 2.4 l-5 0 0 -4.5 c0 -3.9 -0.3 -4.5 -2 -4.5 -4 0 -8.9 2.8 -10.6 6.1 -5 9.8 5.4 47.2 16.4 58.5 l3.7 3.9 15.5 0 15.5 -0.1 3 -3z"/>
  <path d="M487.2 122.8 c-2.2 -2.7 -4.4 -13.8 -4.9 -25 l-0.6 -11.8 5.1 0 c5.8 0 6.2 0.6 6.2 8.4 0 4.8 0.5 7.3 4 19.7 0.7 2.5 1 5.7 0.6 7.2 -0.6 2.4 -1.1 2.7 -5 2.7 -2.4 0 -4.8 -0.6 -5.4 -1.2z"/>
  <path d="M408 66.5 c0 -0.8 0.7 -1.5 1.4 -1.5 1.1 0 1.6 -1.4 1.8 -4.7 0.3 -4.2 0.6 -4.8 2.7 -5.1 2.2 -0.3 2.3 -0.1 1.7 2.8 -0.3 1.8 -0.6 4.8 -0.6 6.6 0 3.2 -0.2 3.4 -3.5 3.4 -2.4 0 -3.5 -0.5 -3.5 -1.5z"/>
 </g>
 <g fill="#fff200">
  <path d="M124 150.5 c-11.2 -3.2 -19.6 -10 -24 -19.6 -3.6 -8 -3.6 -7.9 10.3 -7.9 l12.2 0 2.8 3.5 c4.7 5.9 9.1 7.5 20.5 7.5 6.9 0 12.1 -0.6 17.3 -2.1 12.2 -3.4 12.1 -3.4 13.6 -1.4 0.7 1.1 1.3 4 1.3 6.6 0 6.5 -2.5 9.3 -10.8 12 -9 2.9 -34.8 3.7 -43.2 1.4z"/>
  <path d="M407.8 148.3 c-1 -0.2 -1.8 -1 -1.8 -1.7 0 -0.9 2.8 -1.5 9.7 -1.9 5.5 -0.3 9.9 -1 10.1 -1.6 0.4 -1.3 7.2 -1.5 7.2 -0.2 0 3.3 -18.3 7.2 -25.2 5.4z"/>
  <path d="M398.8 145.9 c-2.9 -1.6 -2.1 -2.9 1.7 -2.9 2.8 0 3.5 0.4 3.5 2 0 2.2 -2.4 2.6 -5.2 0.9z"/>
  <path d="M391.8 142.2 c-3.7 -2.2 -3.5 -3.2 0.7 -3.2 3.1 0 3.5 0.3 3.5 2.5 0 2.9 -0.6 3 -4.2 0.7z"/>
  <path d="M437 138.4 c0 -2.7 3.6 -7.4 5.8 -7.4 0.6 0 1.2 -0.9 1.2 -2 0 -1.5 0.7 -2 2.5 -2 1.4 0 2.5 0.4 2.5 0.9 0 1.5 -6.7 9.7 -9.4 11.5 -2.6 1.6 -2.6 1.6 -2.6 -1z"/>
  <path d="M380.9 132 c-2.9 -3.8 -4.4 -6.5 -5.9 -10.4 -0.9 -2.4 -0.7 -2.6 1.5 -2.6 2.1 0 2.5 0.5 2.5 3 0 2 0.5 3 1.5 3 0.8 0 1.5 0.6 1.5 1.4 0 0.8 0.5 1.6 1.1 1.8 0.6 0.2 0.9 1.9 0.7 3.8 l-0.3 3.5 -2.6 -3.5z"/>
  <path d="M127.8 120.1 c-6.8 -2.2 -14.1 -6.7 -19.7 -12.1 -4.7 -4.6 -11.1 -13.8 -11.1 -16.1 0 -2.7 7.4 -13.2 12.7 -17.9 9.8 -8.9 20.4 -13 33.3 -13 8.9 0 15.9 1.7 23.1 5.6 10.9 6 21.9 18.6 21.9 25.3 0 5.5 -9 16.6 -18.8 23.1 -10.4 6.9 -28.7 9.1 -41.4 5.1z m27.4 -13.6 c8.4 -6 10.6 -15.1 5.6 -23.6 -3.7 -6.3 -9.5 -9.4 -17.8 -9.4 -5.1 0 -7.4 0.6 -10.8 2.5 -11.3 6.4 -12.8 21.8 -2.9 29.4 5 3.8 7.6 4.6 14.9 4.3 5.6 -0.2 7.4 -0.8 11 -3.2z"/>
  <path d="M139.5 102.9 c-1.7 -0.5 -4.4 -2.2 -6 -3.9 -5.7 -6 -3 -15 5.3 -18 3.7 -1.3 4.7 -1.3 8.4 0 5.2 1.9 8.3 5.9 8.3 11 0 7.4 -8.3 13.1 -16 10.9z"/>
  <path d="M451 110.5 c0 -2.8 0.4 -3.5 2 -3.5 2.1 0 2.4 1 1.4 4.8 -1 3.6 -3.4 2.7 -3.4 -1.3z"/>
  <path d="M372.6 109.4 c-0.9 -3.6 0.2 -8.4 2 -8.4 1 0 1.4 1.4 1.4 5.5 0 4 -0.4 5.5 -1.4 5.5 -0.8 0 -1.7 -1.2 -2 -2.6z"/>
  <path d="M451 102.5 c0 -4 2.4 -4.9 3.4 -1.2 1 3.7 0.7 4.7 -1.4 4.7 -1.6 0 -2 -0.7 -2 -3.5z"/>
  <path d="M373 98.8 c0 -3 1.3 -5.8 2.6 -5.8 0.9 0 1.4 1.2 1.4 3.5 0 2.8 -0.4 3.5 -2 3.5 -1.1 0 -2 -0.6 -2 -1.2z"/>
  <path d="M442 81 c0 -1.5 -0.7 -2 -2.5 -2 -2.2 0 -2.5 -0.4 -2.5 -3.5 0 -3.4 0.1 -3.5 4 -3.5 4.1 0 5.3 1.3 2.4 2.4 -1.5 0.6 -1.5 0.9 0.2 2.9 4.9 5.5 4.9 5.7 1.5 5.7 -2.4 0 -3.1 -0.4 -3.1 -2z"/>
  <path d="M380.9 79.1 c2.5 -3.4 8.8 -9.1 10.1 -9.1 0.6 0 1 1.1 1 2.5 0 2.2 -0.4 2.5 -3.5 2.5 -3.3 0 -3.5 0.2 -3.5 3.5 0 3.2 -0.2 3.5 -3.1 3.5 l-3 0 2 -2.9z"/>
  <path d="M395 69 c0 -1.2 3.3 -3 5.4 -3 0.9 0 1.6 0.9 1.6 2 0 1.6 -0.7 2 -3.5 2 -1.9 0 -3.5 -0.4 -3.5 -1z"/>
 </g>
 <g fill="#6eaed2">
  <path d="M215.5 151.4 c-15.1 -3.9 -20.5 -11.9 -22.6 -34.2 -0.7 -7.3 -0.6 -13.5 0.1 -20.5 1.9 -16.8 6.6 -26 15.8 -31 4.3 -2.4 6.4 -2.8 12.2 -2.8 4.2 0 8.1 0.6 9.9 1.6 1.7 0.8 3.2 1.5 3.6 1.5 0.3 0 0.5 -6.7 0.5 -15 l0 -15 15 0 15 0 0 45.3 c0 47.4 0 47.7 4.3 47.7 1.9 0 1.9 0.5 1.3 7.3 -0.4 3.9 -0.9 8.8 -1.2 10.8 l-0.6 3.7 -6.3 0.7 c-10.3 1.1 -18.5 -1.3 -20.7 -6 -1.4 -3.1 -1.9 -3.1 -4.9 0.1 -1.3 1.4 -3.6 3.2 -5.1 4 -2.9 1.5 -13 2.6 -16.3 1.8z m18.9 -24 c1.4 -0.5 1.6 -3.2 1.6 -19 0 -17.1 -0.1 -18.4 -1.9 -19.4 -3.7 -1.9 -7.9 -1.2 -9.8 1.7 -1.5 2.3 -1.8 5 -1.8 17.3 0 17.1 1 20 6.9 20 1.9 0 4.1 -0.3 5 -0.6z"/>
  <path d="M577.8 150.7 c-6.9 -2 -11.6 -6.1 -14.8 -12.9 -4.1 -8.6 -5.3 -17.7 -4.8 -34.7 0.4 -12.3 0.9 -15.6 3 -21.2 3.3 -8.8 6.9 -13.3 13.3 -16.4 6.3 -3.1 16.6 -3.6 21.7 -1.1 1.7 0.9 3.3 1.6 3.5 1.6 0.1 0 0.3 -6.7 0.3 -15 l0 -15 15 0 15 0 0 44.6 c0 28.8 0.4 45.2 1 46.5 0.6 1 1.9 1.9 3 1.9 1 0 2.1 0.3 2.3 0.8 0.6 0.9 -1.9 20.2 -2.7 20.9 -0.3 0.4 -4.8 0.7 -9.9 0.7 -7.9 0.1 -9.7 -0.3 -12.9 -2.2 -2 -1.3 -4 -3.2 -4.3 -4.2 -0.8 -2.6 -1.7 -2.5 -4.6 0.6 -1.3 1.4 -3.6 3.2 -5.1 4 -4 2.1 -13.5 2.6 -19 1.1z m21.6 -23.3 c1.4 -0.5 1.6 -3.2 1.6 -19.4 0 -18.6 0 -18.8 -2.2 -19.4 -4 -1 -7.5 -0.6 -8.9 1.1 -1.1 1.2 -1.4 5.6 -1.4 18.3 0 12.7 0.3 17.1 1.4 18.3 1.3 1.7 6.5 2.3 9.5 1.1z"/>
  <path d="M43.5 148.6 c-4.9 -0.7 -11.2 -1.9 -13.9 -2.6 l-4.8 -1.3 0.6 -10.6 c0.9 -14.3 1.4 -16.4 3.4 -15.6 5.5 2.1 19.1 4.6 24 4.3 5.1 -0.3 5.8 -0.6 7 -3 2.5 -5.4 0 -7.8 -18.8 -18.1 -12.6 -6.9 -18 -15.3 -18.8 -29.2 -0.7 -13.3 3.5 -23.2 12.6 -30.2 6.1 -4.6 12.7 -6.3 25.1 -6.3 9.6 0 27.6 2.1 28.8 3.4 0.6 0.5 -2.5 26.7 -3.2 27.4 -0.2 0.2 -3.9 -0.3 -8.2 -1.2 -17 -3.3 -20.8 -3 -23.1 1.8 -2.1 4.2 0 6.3 12.8 13.1 6.2 3.3 13 7.7 15.2 9.8 10.9 10.6 12.9 30.7 4.4 45.2 -6.9 11.6 -21.9 16.2 -43.1 13.1z"/>
  <path d="M279 108 l0 -42 14.5 0 14.5 0 0 42 0 42 -14.5 0 -14.5 0 0 -42z"/>
  <path d="M323.8 119.8 l-0.3 -30.3 -3.7 -0.3 -3.8 -0.3 0 -11 0 -10.9 4 0 4 0 0 -7.2 c0 -9.2 1.3 -14 5.1 -18.3 4.8 -5.4 10.4 -6.7 26.8 -6.3 7.7 0.2 14.2 0.5 14.4 0.8 0.3 0.3 0 6.1 -0.6 13 l-1.2 12.4 -7.5 0.1 c-7.4 0 -7.5 0 -7.8 2.7 l-0.3 2.8 7.4 0 7.4 0 -0.4 7.8 c-0.7 14.6 -0.4 14.1 -7.6 14.4 l-6.2 0.3 -0.3 30.3 -0.2 30.2 -14.5 0 -14.5 0 -0.2 -30.2z"/>
  <path d="M285.3 60.9 c-4.9 -1.4 -7.3 -5.2 -7.3 -11.5 0 -10.8 3.9 -14.4 15.6 -14.4 8.5 0 13.2 2.5 15.1 8 1.5 4.1 0.8 10.5 -1.3 13.8 -3 4.6 -13.5 6.6 -22.1 4.1z"/>
 </g>
 <g fill="#ffab00">
  <path d="M406.6 148 c-12.1 -2.1 -24.4 -11.8 -30.3 -23.8 -2.6 -5.3 -2.8 -6.5 -2.8 -18.2 0 -11.9 0.1 -12.8 3.1 -19 1.7 -3.6 4.8 -8.4 6.8 -10.7 4.9 -5.6 15 -10.6 22.7 -11.1 4.1 -0.3 5.9 -0.9 5.9 -1.8 0 -0.8 0.5 -1.4 1 -1.4 0.6 0 1 0.9 1 2.1 0 2.9 5 7.3 9.8 8.7 2.5 0.8 7.4 1 12.9 0.7 8.2 -0.5 8.6 -0.4 5.8 0.9 -1.7 0.9 -2.3 1.5 -1.4 1.6 3.9 0.1 11.1 13.4 12.9 24 2.2 12.8 -2.3 26.9 -11.7 36.4 -9.5 9.5 -22.8 13.8 -35.7 11.6z"/>
  <path d="M499 66 c0 -1.2 0.5 -1.7 1.4 -1.4 0.8 0.3 1.6 -0.3 1.9 -1.5 0.4 -1.5 1.3 -2.1 3.5 -2.1 2.6 0 2.9 0.3 2.4 2.2 -0.4 1.7 -0.2 2 1.1 1.5 1.2 -0.5 1.7 -0.1 1.7 1.3 0 1.8 -0.7 2 -6 2 -5.3 0 -6 -0.2 -6 -2z"/>
 </g>
 <g fill="#8bc34a">
  <path d="M420.5 75.8 c-1.6 -0.6 -4.2 -1.9 -5.6 -2.9 -2.5 -1.7 -2.7 -1.8 -2.5 -0.1 0.2 3.2 -2.9 1.8 -3.2 -1.5 -0.2 -2.4 0.1 -3.3 1.7 -3.8 1.3 -0.4 2.1 -1.6 2.3 -3.7 0.3 -3.6 2.5 -4.9 3 -1.8 0.3 1.9 0.6 1.8 5.2 -1.4 8.3 -6 18.7 -6.9 28.3 -2.4 7.9 3.7 7.7 5.6 -0.8 12.3 -7.5 5.8 -16.9 8.3 -16.9 4.5 0 -1.2 0.7 -2 1.8 -2 2.2 0 11.2 -5.2 13.6 -7.9 1.9 -2 1.8 -2.1 -2.8 -4.1 -2.6 -1.1 -6 -2 -7.4 -2 -3.3 0 -10.1 3 -14.6 6.5 -1.8 1.4 -3.9 2.5 -4.7 2.5 -2 0.1 6.2 5 8.4 5 1 0 1.7 0.8 1.7 2 0 2.3 -2.5 2.5 -7.5 0.8z"/>
  <path d="M499.7 67.3 c-1.6 -1.5 -0.6 -3.1 1.5 -2.5 1.3 0.3 1.9 0.1 1.5 -0.5 -0.4 -0.5 0.1 -3.6 1 -6.7 1.2 -4.1 2.6 -6.6 5.4 -9.1 4.1 -3.7 5.8 -4.2 9 -2.5 4.2 2.3 1 10 -4.2 10 -1.9 0 -4 2.4 -5.7 6.4 -1.2 2.8 -1.2 2.8 1.3 2.2 2.4 -0.6 2.5 -0.5 1.5 1.4 -0.8 1.6 -2.1 2 -5.9 2 -2.6 0 -5.1 -0.3 -5.4 -0.7z"/>
 </g>
 <g fill="#fb8c00">
  <path d="M403.7 143.3 c-1.3 -1.2 -0.7 -4.1 0.8 -4.7 1.8 -0.6 3 1.6 2.1 3.9 -0.6 1.6 -1.8 1.9 -2.9 0.8z"/>
  <path d="M412 142.4 c-1 -1.1 -1 -1.7 0 -2.8 1.5 -1.9 4 -1 4 1.4 0 2.4 -2.5 3.3 -4 1.4z"/>
  <path d="M421.3 143.3 c-1.7 -0.6 -1.6 -4 0.1 -4.6 1.7 -0.7 2.6 0.1 2.6 2.4 0 2.1 -1 2.8 -2.7 2.2z"/>
  <path d="M390.2 133.8 c0.2 -1.3 1 -2.3 1.8 -2.3 0.8 0 1.6 1 1.8 2.3 0.3 1.7 -0.2 2.2 -1.8 2.2 -1.6 0 -2.1 -0.5 -1.8 -2.2z"/>
  <path d="M398.7 134.7 c-0.3 -0.8 -0.2 -2 0.3 -2.7 1.1 -1.8 4.2 -0.4 3.8 1.7 -0.4 2.2 -3.4 2.9 -4.1 1z"/>
  <path d="M407.4 134.5 c-0.7 -1.8 0.3 -3.5 2.1 -3.5 1.5 0 2.8 2.7 1.9 4.1 -0.8 1.4 -3.4 1.1 -4 -0.6z"/>
  <path d="M416.2 133.8 c0.2 -1.3 1 -2.3 1.8 -2.3 0.8 0 1.6 1 1.8 2.3 0.3 1.7 -0.2 2.2 -1.8 2.2 -1.6 0 -2.1 -0.5 -1.8 -2.2z"/>
  <path d="M424.6 135.1 c-1 -1.6 0.5 -4.2 2.3 -3.9 2.1 0.4 2.1 4.2 -0.1 4.6 -0.9 0.2 -1.9 -0.1 -2.2 -0.7z"/>
  <path d="M433 134.1 c0 -2.6 1.7 -3.6 3.5 -2.1 1.8 1.5 0.8 4 -1.6 4 -1.2 0 -1.9 -0.7 -1.9 -1.9z"/>
  <path d="M403.7 128.4 c-1.6 -1.6 -0.7 -4.4 1.4 -4.4 1.5 0 2 0.5 1.7 2.2 -0.3 2.2 -1.9 3.3 -3.1 2.2z"/>
  <path d="M411.7 127.7 c-0.3 -0.8 -0.2 -2 0.3 -2.7 1.1 -1.8 4.2 -0.4 3.8 1.7 -0.4 2.2 -3.4 2.9 -4.1 1z"/>
  <path d="M420.4 127.5 c-0.7 -1.8 0.3 -3.5 2.2 -3.5 0.8 0 1.4 1 1.4 2.5 0 2.7 -2.7 3.5 -3.6 1z"/>
  <path d="M429 126.5 c0 -2 0.4 -2.6 1.8 -2.3 0.9 0.2 1.7 1.2 1.7 2.3 0 1.1 -0.8 2.1 -1.7 2.3 -1.4 0.3 -1.8 -0.3 -1.8 -2.3z"/>
  <path d="M437.4 127.5 c-0.4 -0.9 -0.2 -2.1 0.4 -2.7 1.5 -1.5 4.4 -0.1 4 1.9 -0.4 2.3 -3.6 2.9 -4.4 0.8z"/>
  <path d="M425 120.6 c-1 -1.3 -1 -1.9 0 -3.2 1.2 -1.4 1.5 -1.4 2.9 0 1.4 1.5 1.4 1.7 0 3.2 -1.4 1.4 -1.7 1.4 -2.9 0z"/>
  <path d="M433.7 121.3 c-1.3 -1.2 -0.7 -4.1 0.8 -4.7 1.8 -0.6 3 1.6 2.1 3.9 -0.6 1.6 -1.8 1.9 -2.9 0.8z"/>
  <path d="M442.4 120.6 c-0.9 -2.4 0.3 -4.7 2.1 -4 1.8 0.7 1.6 4.5 -0.2 5.2 -0.7 0.2 -1.6 -0.3 -1.9 -1.2z"/>
  <path d="M429.2 111.8 c0.2 -1.3 1 -2.3 1.8 -2.3 0.8 0 1.6 1 1.8 2.3 0.3 1.7 -0.2 2.2 -1.8 2.2 -1.6 0 -2.1 -0.5 -1.8 -2.2z"/>
  <path d="M437.4 112.5 c-0.4 -0.9 -0.2 -2.1 0.4 -2.7 1.5 -1.5 4.4 -0.1 4 1.9 -0.4 2.3 -3.6 2.9 -4.4 0.8z"/>
  <path d="M446.2 111.8 c0.2 -1.3 1 -2.3 1.8 -2.3 0.8 0 1.6 1 1.8 2.3 0.3 1.7 -0.2 2.2 -1.8 2.2 -1.6 0 -2.1 -0.5 -1.8 -2.2z"/>
  <path d="M424.6 105.4 c-0.4 -1 -0.2 -2.2 0.3 -2.7 1.4 -1.4 4.3 0 3.9 2 -0.4 2.4 -3.4 2.8 -4.2 0.7z"/>
  <path d="M433.4 105.5 c-0.7 -1.8 0.3 -3.5 2.1 -3.5 1.5 0 2.4 1.9 1.8 3.8 -0.6 1.7 -3.2 1.5 -3.9 -0.3z"/>
  <path d="M441.7 105.7 c-0.3 -0.8 -0.2 -2 0.3 -2.7 1.1 -1.8 4.2 -0.4 3.8 1.7 -0.4 2.2 -3.4 2.9 -4.1 1z"/>
  <path d="M429.4 98.6 c-0.9 -2.4 0.3 -4.7 2.1 -4 1.8 0.7 1.6 4.5 -0.2 5.2 -0.7 0.2 -1.6 -0.3 -1.9 -1.2z"/>
  <path d="M438 98.6 c-1 -1.3 -1 -1.9 0 -3.2 1.2 -1.4 1.5 -1.4 2.9 0 1.4 1.5 1.4 1.7 0 3.2 -1.4 1.4 -1.7 1.4 -2.9 0z"/>
  <path d="M446.7 99.3 c-1.3 -1.2 -0.7 -4.1 0.8 -4.7 1.8 -0.6 3 1.6 2.1 3.9 -0.6 1.6 -1.8 1.9 -2.9 0.8z"/>
  <path d="M433.4 90.5 c-0.4 -0.8 0 -2.2 0.7 -3.1 1.2 -1.4 1.4 -1.4 2.5 0.1 0.7 0.9 1 2.3 0.7 3.1 -0.7 1.9 -3.2 1.8 -3.9 -0.1z"/>
  <path d="M441.7 90.6 c-0.8 -2 2 -4.3 3.5 -2.8 1.4 1.4 0.3 4.2 -1.6 4.2 -0.7 0 -1.6 -0.6 -1.9 -1.4z"/>
  <path d="M402.6 86 c0.3 -1.4 1.6 -4.9 2.9 -7.7 l2.4 -5.3 -2.1 0 c-3.7 0 -10.5 3.9 -14.7 8.5 -4.5 4.9 -5.2 5 -1.9 0.2 5.3 -7.8 13.6 -13.7 19.2 -13.7 1.9 0 2.6 -0.7 3.1 -3 1 -4.7 3.2 -3.7 3.8 1.8 0.3 2.6 0.3 4.9 0.1 5.1 -0.2 0.2 -1.4 -0.4 -2.5 -1.5 -2.2 -1.9 -2.2 -1.9 -1 0.4 1.1 2 0.7 2.8 -2.7 7 -2.2 2.6 -4.7 6.1 -5.6 7.7 -1.5 2.6 -1.6 2.7 -1 0.5z"/>
  <path d="M432.8 81.5 c-2 -2.6 -2.2 -3.5 -1 -3.5 0.9 0 3.5 5 3 5.5 -0.2 0.2 -1.1 -0.7 -2 -2z"/>
  <path d="M428 76 c0 -0.5 1.8 -1 4.1 -1 2.4 0 3.8 0.4 3.4 1 -0.3 0.6 -2.2 1 -4.1 1 -1.9 0 -3.4 -0.4 -3.4 -1z"/>
  <path d="M500 67 c0 -1.7 0.7 -2 5 -2 4.3 0 5 0.3 5 2 0 1.7 -0.7 2 -5 2 -4.3 0 -5 -0.3 -5 -2z"/>
 </g>
 <g fill="#48a94c">
  <path d="M421.9 75.7 c-2 -0.8 -5.1 -2.4 -6.9 -3.7 -2.9 -2 -3.1 -2.6 -2.5 -5.9 0.3 -2 1.3 -4.3 2.1 -5.1 1.2 -1.2 1.4 -1.1 1.4 1.4 l0 2.8 3.5 -2.6 c9.2 -7.1 19.3 -8.5 28.7 -4.2 8.8 4.1 8.7 3.9 3.7 8.5 -9.5 8.7 -21.2 12.1 -30 8.8z"/>
 </g>
 <g fill="#ff3d00">
  <path d="M482.9 141.8 c-8.9 -9.2 -16.5 -31.2 -17.6 -50.8 -0.5 -8.8 -0.3 -11.1 1.1 -13.9 1.8 -3.4 6.6 -6.1 11.1 -6.1 1.6 0 3.9 -1.3 6 -3.5 4.4 -4.3 8.7 -5.2 16 -3.1 5.2 1.6 5.9 1.6 11 0 6.6 -2.1 11.8 -1 16.4 3.6 1.8 1.8 4 3 5.6 3 4.3 0 9.3 2.7 10.9 5.9 5.7 10.9 -5.6 54.2 -17 65.7 l-3.3 3.2 -18.1 0 -18.1 0.1 -4 -4.1z m11.4 -22 c0.2 -0.7 -0.5 -3.8 -1.5 -6.8 -1.1 -3 -2.1 -8.6 -2.4 -12.5 -0.8 -10.3 -1.1 -11.5 -3.6 -11.5 -2 0 -2.1 0.3 -1.5 8.8 0.7 8.9 3.1 19.7 4.9 22 0.6 0.6 1.6 1.2 2.3 1.2 0.8 0 1.5 -0.6 1.8 -1.2z m-4.7 -42.2 c0.3 -1.3 1.6 -3.3 3 -4.5 1.4 -1.2 2.1 -2.7 1.8 -3.6 -1.7 -4.4 -9.4 2.4 -9.4 8.5 0 3 3.8 2.7 4.6 -0.4z"/>
 </g>
 <g fill="#dd2c00">
  <path d="M489 138.2 c-8.8 -9.3 -15.2 -32.7 -14.9 -54.7 0.1 -9.5 0.9 -12 3.8 -12 2.3 0 2.3 0.1 2.2 11 -0.3 18.9 6 46.6 12.4 55.1 1.4 1.8 2.5 3.5 2.5 3.8 0 1.7 -2.7 0.2 -6 -3.2z"/>
  <path d="M516.3 139.7 c0.9 -1.5 2.4 -3.7 3.2 -5 5.3 -8.2 10.8 -34.2 10.9 -52 0.1 -11.2 0.2 -11.8 2.1 -11.5 1.6 0.2 2.1 1.3 2.6 5.8 0.8 6.5 -0.7 25.7 -2.6 35.1 -2.8 13.2 -8.9 25 -14.9 28.5 l-3.1 1.8 1.8 -2.7z"/>
 </g>
 <g fill="#2e7d32">
  <path d="M412 66.1 c0 -3.4 0.3 -4.1 2 -4.1 1.4 0 2 0.7 2 2.1 0 1.6 0.4 1.9 1.8 1.4 6.6 -2.9 10.9 -3.8 19.7 -4.2 5.5 -0.3 11.8 -0.1 14 0.4 3.8 0.9 3.4 1 -6.5 2.2 -11.1 1.4 -28.3 4.5 -31.2 5.6 -1.5 0.6 -1.8 0.1 -1.8 -3.4z"/>
 </g>
 <g fill="#5d4037">
  <path d="M412 62.2 c0 -5.5 0.2 -6.2 2 -6.2 1.7 0 2 0.7 2 4.3 0 3.1 -0.6 4.9 -2 6.2 -2 1.8 -2 1.7 -2 -4.3z"/>
 </g>
</svg>